<svg id="Layer_4" data-name="Layer 4" xmlns="http://www.w3.org/2000/svg" viewBox="0 0 832.14 792.39"><defs><style>.cls-1{fill:#fff;}</style></defs><path class="cls-1" d="M865,395.73,896,347c-47.38-70.67-199-86.71-266.33-24.13,15.1-35.17,20.49-74.71,7.06-122.07C613.48,119,544.57,83.63,533.29,78.09L500,121.27,461.7,78.09c-79.21,25.56-135.6,161.38-99,244-70.74-56.26-216.4-36-261.12,34.23l32.11,48-50.18,21.3c2.52,12.31,19.31,87.9,92.66,131,33.2,19.51,64.67,26.67,94.92,26.12-23.8,18.9-43.6,44.55-56.78,80.93-29,80,6.34,148.94,12.25,160l52.23-15.61,5.88,57.43c73,23.52,185-40.29,216.63-119.67,32.46,79.06,145.05,141.74,217.82,117.48l5.3-57.49L776.8,821c5.8-11.14,40.41-80.41,10.64-160.13-14.33-38.35-36-64.61-61.79-83.53,32.16.93,65.48-6.61,100.45-28.27,72.32-44.85,87.33-120.81,89.56-133.17ZM604.57,524,456.41,603.41a25.21,25.21,0,0,1-37.11-22.22V422.35a25.2,25.2,0,0,1,37.11-22.21l148.16,79.42A25.2,25.2,0,0,1,604.57,524Z" transform="translate(-83.51 -78.09)"/></svg>